<mxfile host="app.diagrams.net" agent="Mozilla/5.0 (Macintosh; Intel Mac OS X 10.15; rv:131.0) Gecko/20100101 Firefox/131.0" version="24.7.17">
  <diagram name="Page-1" id="05vPI0_rBhq4Foq6GJoe">
    <mxGraphModel dx="1647" dy="933" grid="1" gridSize="10" guides="1" tooltips="1" connect="1" arrows="1" fold="1" page="1" pageScale="1" pageWidth="1169" pageHeight="827" math="0" shadow="0">
      <root>
        <mxCell id="0" />
        <mxCell id="1" parent="0" />
        <mxCell id="cTQu5qM-zi73T_44-vZZ-1" style="edgeStyle=orthogonalEdgeStyle;rounded=0;orthogonalLoop=1;jettySize=auto;html=1;entryX=0;entryY=0.5;entryDx=0;entryDy=0;strokeWidth=2;" edge="1" parent="1" source="cTQu5qM-zi73T_44-vZZ-3" target="cTQu5qM-zi73T_44-vZZ-11">
          <mxGeometry relative="1" as="geometry" />
        </mxCell>
        <mxCell id="cTQu5qM-zi73T_44-vZZ-2" style="edgeStyle=orthogonalEdgeStyle;rounded=0;orthogonalLoop=1;jettySize=auto;html=1;entryX=0;entryY=0.5;entryDx=0;entryDy=0;strokeWidth=2;" edge="1" parent="1" source="cTQu5qM-zi73T_44-vZZ-3" target="cTQu5qM-zi73T_44-vZZ-12">
          <mxGeometry relative="1" as="geometry" />
        </mxCell>
        <mxCell id="cTQu5qM-zi73T_44-vZZ-3" value="&lt;font style=&quot;font-size: 14px;&quot;&gt;Host Application&lt;/font&gt;" style="rounded=0;whiteSpace=wrap;html=1;fillColor=#fff2cc;strokeColor=#d6b656;" vertex="1" parent="1">
          <mxGeometry x="590" y="250" width="200" height="40" as="geometry" />
        </mxCell>
        <mxCell id="cTQu5qM-zi73T_44-vZZ-4" style="edgeStyle=orthogonalEdgeStyle;rounded=0;orthogonalLoop=1;jettySize=auto;html=1;shape=link;strokeWidth=2;" edge="1" parent="1" source="cTQu5qM-zi73T_44-vZZ-5" target="cTQu5qM-zi73T_44-vZZ-3">
          <mxGeometry relative="1" as="geometry" />
        </mxCell>
        <mxCell id="cTQu5qM-zi73T_44-vZZ-5" value="&lt;font style=&quot;font-size: 14px;&quot;&gt;MSAL Library&lt;/font&gt;" style="rounded=0;whiteSpace=wrap;html=1;fillColor=#dae8fc;strokeColor=#6c8ebf;" vertex="1" parent="1">
          <mxGeometry x="610" y="120" width="160" height="40" as="geometry" />
        </mxCell>
        <mxCell id="cTQu5qM-zi73T_44-vZZ-6" style="edgeStyle=orthogonalEdgeStyle;rounded=0;orthogonalLoop=1;jettySize=auto;html=1;entryX=0.5;entryY=0;entryDx=0;entryDy=0;fillColor=#dae8fc;strokeColor=#6c8ebf;strokeWidth=2;" edge="1" parent="1" source="cTQu5qM-zi73T_44-vZZ-7" target="cTQu5qM-zi73T_44-vZZ-5">
          <mxGeometry relative="1" as="geometry" />
        </mxCell>
        <mxCell id="cTQu5qM-zi73T_44-vZZ-7" value="&lt;font style=&quot;font-size: 14px;&quot;&gt;&lt;b&gt;AZURE&lt;/b&gt;&lt;/font&gt;" style="ellipse;shape=cloud;whiteSpace=wrap;html=1;fillColor=#dae8fc;strokeColor=#6c8ebf;dashed=1;dashPattern=1 1;strokeWidth=2;" vertex="1" parent="1">
          <mxGeometry x="890" y="50" width="120" height="80" as="geometry" />
        </mxCell>
        <mxCell id="cTQu5qM-zi73T_44-vZZ-19" style="edgeStyle=orthogonalEdgeStyle;rounded=0;orthogonalLoop=1;jettySize=auto;html=1;entryX=0;entryY=0.5;entryDx=0;entryDy=0;" edge="1" parent="1" source="cTQu5qM-zi73T_44-vZZ-9" target="cTQu5qM-zi73T_44-vZZ-16">
          <mxGeometry relative="1" as="geometry">
            <Array as="points">
              <mxPoint x="110" y="270" />
              <mxPoint x="110" y="270" />
            </Array>
          </mxGeometry>
        </mxCell>
        <mxCell id="cTQu5qM-zi73T_44-vZZ-21" style="edgeStyle=orthogonalEdgeStyle;rounded=0;orthogonalLoop=1;jettySize=auto;html=1;entryX=0.5;entryY=1;entryDx=0;entryDy=0;strokeWidth=2;" edge="1" parent="1" source="cTQu5qM-zi73T_44-vZZ-9" target="cTQu5qM-zi73T_44-vZZ-3">
          <mxGeometry relative="1" as="geometry">
            <Array as="points">
              <mxPoint x="140" y="280" />
              <mxPoint x="140" y="360" />
              <mxPoint x="690" y="360" />
            </Array>
          </mxGeometry>
        </mxCell>
        <mxCell id="cTQu5qM-zi73T_44-vZZ-9" value="&lt;font style=&quot;font-size: 14px;&quot;&gt;User&lt;/font&gt;" style="shape=umlActor;verticalLabelPosition=bottom;verticalAlign=top;html=1;outlineConnect=0;strokeWidth=2;" vertex="1" parent="1">
          <mxGeometry x="20" y="235" width="50" height="90" as="geometry" />
        </mxCell>
        <mxCell id="cTQu5qM-zi73T_44-vZZ-10" style="edgeStyle=orthogonalEdgeStyle;rounded=0;orthogonalLoop=1;jettySize=auto;html=1;entryX=0.875;entryY=0.5;entryDx=0;entryDy=0;entryPerimeter=0;fillColor=#dae8fc;strokeColor=#6c8ebf;strokeWidth=2;" edge="1" parent="1" source="cTQu5qM-zi73T_44-vZZ-5" target="cTQu5qM-zi73T_44-vZZ-7">
          <mxGeometry relative="1" as="geometry">
            <Array as="points">
              <mxPoint x="1070" y="140" />
              <mxPoint x="1070" y="90" />
            </Array>
          </mxGeometry>
        </mxCell>
        <mxCell id="cTQu5qM-zi73T_44-vZZ-11" value="RIS" style="rounded=0;whiteSpace=wrap;html=1;fillColor=#d5e8d4;strokeColor=#82b366;" vertex="1" parent="1">
          <mxGeometry x="890" y="210" width="200" height="40" as="geometry" />
        </mxCell>
        <mxCell id="cTQu5qM-zi73T_44-vZZ-12" value="CRD" style="rounded=0;whiteSpace=wrap;html=1;fillColor=#f8cecc;strokeColor=#b85450;" vertex="1" parent="1">
          <mxGeometry x="890" y="290" width="200" height="40" as="geometry" />
        </mxCell>
        <mxCell id="cTQu5qM-zi73T_44-vZZ-13" value="&lt;div&gt;ris-online.rne.eu&lt;/div&gt;" style="text;html=1;align=center;verticalAlign=middle;whiteSpace=wrap;rounded=0;fontSize=14;" vertex="1" parent="1">
          <mxGeometry x="450" y="240" width="110" height="30" as="geometry" />
        </mxCell>
        <mxCell id="cTQu5qM-zi73T_44-vZZ-14" value="newcrd.rne.eu" style="text;html=1;align=center;verticalAlign=middle;whiteSpace=wrap;rounded=0;fontSize=14;" vertex="1" parent="1">
          <mxGeometry x="450" y="270" width="110" height="30" as="geometry" />
        </mxCell>
        <mxCell id="cTQu5qM-zi73T_44-vZZ-15" value="Easy solution" style="text;html=1;align=left;verticalAlign=middle;whiteSpace=wrap;rounded=0;fontSize=14;fontStyle=1" vertex="1" parent="1">
          <mxGeometry x="40" y="20" width="240" height="30" as="geometry" />
        </mxCell>
        <mxCell id="cTQu5qM-zi73T_44-vZZ-18" style="edgeStyle=orthogonalEdgeStyle;rounded=0;orthogonalLoop=1;jettySize=auto;html=1;strokeWidth=2;" edge="1" parent="1" source="cTQu5qM-zi73T_44-vZZ-16" target="cTQu5qM-zi73T_44-vZZ-3">
          <mxGeometry relative="1" as="geometry" />
        </mxCell>
        <mxCell id="cTQu5qM-zi73T_44-vZZ-27" style="edgeStyle=orthogonalEdgeStyle;rounded=0;orthogonalLoop=1;jettySize=auto;html=1;exitX=0.5;exitY=0;exitDx=0;exitDy=0;entryX=0.5;entryY=1;entryDx=0;entryDy=0;shape=link;strokeWidth=2;" edge="1" parent="1" source="cTQu5qM-zi73T_44-vZZ-16" target="cTQu5qM-zi73T_44-vZZ-24">
          <mxGeometry relative="1" as="geometry" />
        </mxCell>
        <mxCell id="cTQu5qM-zi73T_44-vZZ-16" value="&lt;font style=&quot;font-size: 14px;&quot;&gt;LANDING PAGE&lt;/font&gt;" style="rounded=0;whiteSpace=wrap;html=1;fillColor=#e1d5e7;strokeColor=#9673a6;" vertex="1" parent="1">
          <mxGeometry x="210" y="250" width="200" height="40" as="geometry" />
        </mxCell>
        <mxCell id="cTQu5qM-zi73T_44-vZZ-20" value="&lt;div&gt;ris.rne.eu&lt;/div&gt;" style="text;html=1;align=center;verticalAlign=middle;whiteSpace=wrap;rounded=0;fontSize=14;fontStyle=1;strokeWidth=2;" vertex="1" parent="1">
          <mxGeometry x="90" y="240" width="110" height="30" as="geometry" />
        </mxCell>
        <mxCell id="cTQu5qM-zi73T_44-vZZ-22" value="&lt;div&gt;ris-online.rne.eu&lt;/div&gt;" style="text;html=1;align=center;verticalAlign=middle;whiteSpace=wrap;rounded=0;fontSize=14;" vertex="1" parent="1">
          <mxGeometry x="400" y="330" width="110" height="30" as="geometry" />
        </mxCell>
        <mxCell id="cTQu5qM-zi73T_44-vZZ-23" value="newcrd.rne.eu" style="text;html=1;align=center;verticalAlign=middle;whiteSpace=wrap;rounded=0;fontSize=14;" vertex="1" parent="1">
          <mxGeometry x="400" y="360" width="110" height="30" as="geometry" />
        </mxCell>
        <mxCell id="cTQu5qM-zi73T_44-vZZ-28" style="edgeStyle=orthogonalEdgeStyle;rounded=0;orthogonalLoop=1;jettySize=auto;html=1;strokeWidth=2;exitX=0.5;exitY=0;exitDx=0;exitDy=0;" edge="1" parent="1" source="cTQu5qM-zi73T_44-vZZ-24" target="cTQu5qM-zi73T_44-vZZ-25">
          <mxGeometry relative="1" as="geometry">
            <Array as="points">
              <mxPoint x="310" y="80" />
            </Array>
          </mxGeometry>
        </mxCell>
        <mxCell id="cTQu5qM-zi73T_44-vZZ-24" value="&lt;font style=&quot;font-size: 14px;&quot;&gt;REGISTRATION&lt;/font&gt;" style="rounded=0;whiteSpace=wrap;html=1;fillColor=#ffe6cc;strokeColor=#d79b00;" vertex="1" parent="1">
          <mxGeometry x="210" y="120" width="200" height="40" as="geometry" />
        </mxCell>
        <mxCell id="cTQu5qM-zi73T_44-vZZ-25" value="&lt;div&gt;&lt;b&gt;REGISTRATION&lt;/b&gt;&lt;/div&gt;&lt;div&gt;&lt;b&gt;API&lt;/b&gt;&lt;/div&gt;" style="ellipse;shape=cloud;whiteSpace=wrap;html=1;fillColor=#dae8fc;strokeColor=#6c8ebf;dashed=1;dashPattern=1 1;strokeWidth=2;" vertex="1" parent="1">
          <mxGeometry x="440" y="40" width="120" height="80" as="geometry" />
        </mxCell>
      </root>
    </mxGraphModel>
  </diagram>
</mxfile>
